<?xml version="1.0" encoding="UTF-8"?>
<svg id="Layer_2" data-name="Layer 2" xmlns="http://www.w3.org/2000/svg" viewBox="0 0 53.4211 30.3751">
  <defs>
    <style>
      .cls-1 {
        fill: #2ab0e5;
        stroke-width: 0px;
      }
    </style>
  </defs>
  <g id="Layer_1-2" data-name="Layer 1">
    <g>
      <path class="cls-1" d="m50.1388,8.8034C42.6276,15.7458,5.0939,29.9702,5.633,21.3176c.6062-9.7302,11.647-13.5176,19.2705-16.5176,0,0-19.8674,8.1307-17.0823,16.5176s42.3176-12.5142,42.3176-12.5142Z"/>
      <path class="cls-1" d="m21.38,10.2s-10.3529,3.4353-11.3882,8.8941c-1.1657,6.1463,36.0175-9.8823,36.0175-9.8823-6.018,3.9722-38.3689,14.1999-35.0823,9.0353,0,0,2.3413-4.7647,10.453-8.047Z"/>
      <path class="cls-1" d="m53.1035,7.4823C44.9623,19.4352,1.0556,38.7096.0435,26.4424-1.0946,12.6475,20.3859,4.5882,32.1035,0,32.1035,0-1.2365,11.0767,4.3048,22.3028c6.4276,13.0217,47.6495-12.4028,48.7987-14.8205Z"/>
      <path class="cls-1" d="m46.0094,8.4705c4.7864-2.4255-17.5352,2.4736-17.5255,2.1452-.098,0-.1381-.1925-.0227-.2484,1.2352-.5983,6.6282-1.3081,12.4913-2.4085,4.5923-.8619,10.0716-2.6133,12.4686-1.3588"/>
    </g>
  </g>
</svg>