<?xml version="1.0" encoding="UTF-8"?>
<svg id="Layer_2" data-name="Layer 2" xmlns="http://www.w3.org/2000/svg" viewBox="0 0 68.7397 72.4782">
  <defs>
    <style>
      .cls-1 {
        fill: none;
        stroke: #000;
        stroke-miterlimit: 10;
        stroke-width: 5px;
      }

      .cls-2 {
        stroke-width: 0px;
      }
    </style>
  </defs>
  <g id="Layer_1-2" data-name="Layer 1">
    <g>
      <g>
        <polygon class="cls-2" points="37.4504 19.6521 37.4504 14.7513 25.3703 7.5968 13.4829 14.5724 13.4829 20.1816 18.9918 20.1816 18.9918 18.1135 25.3703 14.3578 31.5837 17.8993 31.5837 19.6614 37.4504 19.6521"/>
        <polygon class="cls-2" points="46.4158 33.0686 46.4158 24.6507 34.3357 17.4962 22.4484 24.4718 22.4484 31.0338 27.9573 31.0338 27.9573 28.0129 34.3357 24.2572 40.5492 27.7986 40.5492 33.0779 46.4158 33.0686"/>
        <polygon class="cls-2" points="64.7826 33.0593 64.7826 24.471 52.7025 17.3166 40.8152 24.2922 40.8152 33.0686 46.3241 33.0686 46.3241 27.8332 52.7025 24.0775 58.916 27.619 58.916 33.0686 64.7826 33.0593"/>
        <polygon class="cls-2" points="27.9868 33.0639 27.9868 25.2733 15.9067 18.1188 4.0193 25.0944 4.0193 33.7079 9.5283 33.7079 9.5283 28.6355 15.9067 24.8798 22.1201 28.4212 22.1201 33.0732 27.9868 33.0639"/>
        <polygon class="cls-2" points="55.7985 19.1397 55.7985 14.2389 43.7184 7.0844 31.8311 14.06 31.8311 19.6692 37.34 19.6692 37.34 17.6011 43.7184 13.8454 49.9319 17.3868 49.9319 19.149 55.7985 19.1397"/>
      </g>
      <polygon class="cls-1" points="2.5 4.6447 4.8592 2.5 66.2397 2.5 66.2397 30.0857 63.8175 32.2876 3.5088 32.2876 2.5 30.9967 2.5 4.6447"/>
    </g>
    <g>
      <path class="cls-2" d="m14.0795,41.7931v8.9214h-2.7446v-3.0957l.0409-3.0007h-.0409l-1.7307,6.0964h-2.5148l-1.703-6.0964h-.0541l.0409,3.0007v3.0957h-2.7578v-8.9214h4.4066l1.0271,3.9604.3921,1.662h.0277l.3921-1.662,1.0271-3.9604h4.1914Z"/>
      <path class="cls-2" d="m24.3395,50.7145h-3.2172l-.4066-1.703h-2.4053l-.4198,1.703h-3.1353l2.8924-8.9214h3.7848l2.9069,8.9214Zm-5.5564-3.6634h1.4733l-.73-3.0957-.7432,3.0957Z"/>
      <path class="cls-2" d="m29.855,41.7931c1.163,0,2.0541.2587,2.6759.7762.6218.5188.9333,1.2066.9333,2.062,0,.9822-.3036,1.7214-.9122,2.2165-.6086.4964-1.4944.7446-2.6561.7446l-.3116.1611h-1.4865v2.9611h-3.0825v-8.9214h4.8396Zm-.5413,3.8931c.334,0,.5835-.0607.7512-.1835.1663-.1215.2495-.3353.2495-.6416,0-.297-.0832-.5096-.2495-.635-.1677-.1267-.4172-.1901-.7512-.1901h-1.2158v1.6502h1.2158Zm1.8653.6614l2.7855,4.367h-3.4205l-2.0818-3.9063,2.7168-.4607Z"/>
      <path class="cls-2" d="m42.9665,47.9845c-.1624.6931-.4396,1.2515-.8317,1.6752s-.8673.7287-1.4257.9122c-.5597.1848-1.1815.2772-1.8653.2772-.9373,0-1.7465-.1795-2.4264-.5399-.6812-.3604-1.204-.8832-1.5683-1.5683-.3657-.6851-.5479-1.5142-.5479-2.4871s.1822-1.802.5479-2.4871c.3644-.6851.8871-1.2079,1.5683-1.5683.6799-.3604,1.4891-.5413,2.4264-.5413.6574,0,1.27.0924,1.8376.2772s1.0482.4752,1.4403.8726c.3921.396.6508.9149.7776,1.5538l-2.7036,1.0548c-.0726-.5861-.2191-.9637-.4396-1.1353-.2218-.1716-.4977-.2574-.8317-.2574-.3063,0-.565.0792-.7776.2363-.2112.1584-.3696.4013-.4726.73-.1043.33-.1558.7512-.1558,1.2647,0,.5043.0475.9241.1426,1.2568.0937.334.2495.5795.466.7366.2165.1584.5043.2363.8647.2363.3248,0,.5901-.0964.7974-.2904.2073-.1927.338-.5016.3921-.9254l2.7855.7168Z"/>
      <path class="cls-2" d="m52.321,41.7931v5.0825c0,1.3333-.3578,2.33-1.0746,2.9875s-1.7954.9861-3.2383.9861c-1.4416,0-2.5201-.3287-3.237-.9861-.7168-.6574-1.0746-1.6541-1.0746-2.9875v-5.0825h3.163v5.3254c0,.4515.099.7908.297,1.0205s.4818.3446.8515.3446c.3789,0,.668-.1149.866-.3446s.297-.569.297-1.0205v-5.3254h3.1498Z"/>
      <path class="cls-2" d="m57.5381,41.6571c.8568,0,1.6251.1069,2.3049.3182.6812.2112,1.2818.5294,1.8046.9531l-1.27,2.0277c-.4238-.2983-.8673-.536-1.332-.7168-.4647-.1795-.9663-.2706-1.5076-.2706-.2337,0-.4211.0185-.5611.0541-.1399.037-.2389.0858-.297.1492s-.0871.1347-.0871.2165c0,.1083.0832.1888.2495.2429s.3762.1122.6284.1756l1.2304.2838c.9096.2073,1.5974.5135,2.062.9188.4634.4066.6957.969.6957,1.6898,0,.7221-.1756,1.3148-.5267,1.7782-.3525.4647-.8277.8092-1.4271,1.0337-.5993.2257-1.2766.338-2.0343.338-.5677,0-1.1353-.0515-1.703-.1545-.5677-.1043-1.0957-.2574-1.5815-.4607-.4871-.202-.9056-.4475-1.2568-.7366l1.2436-2.0673c.2614.2073.5756.3934.9452.5611.3696.1663.7525.2997,1.1498.3987.396.099.7657.1479,1.1076.1479.2165,0,.3881-.0172.5149-.0541.1254-.0356.2139-.0832.2627-.1413.0502-.0581.0752-.1281.0752-.2099,0-.1254-.0528-.2205-.1558-.2838-.1043-.0634-.2904-.1254-.5611-.1888l-1.3518-.2983c-.4779-.1069-.9333-.2521-1.365-.4317-.433-.1809-.7842-.4436-1.0548-.7908s-.4053-.8185-.4053-1.4125c0-.6125.1637-1.1498.4924-1.6092.33-.4594.8066-.8172,1.4337-1.0746.6257-.2574,1.3861-.3855,2.2772-.3855Z"/>
      <path class="cls-2" d="m2.6154,61.5291v-8.9214h5.1102c1.1261.0079,1.9644.2086,2.5135.6007.5505.3921.8251.9848.8251,1.7782,0,.532-.1624.9822-.4871,1.3518-.3234.3696-.833.6033-1.5274.7023v.0145c.7749.0805,1.3426.3102,1.703.6891s.5413.8554.5413,1.4323c0,.7842-.264,1.3729-.7908,1.765s-1.336.5875-2.4264.5875H2.6154Zm3.0152-5.4614h1.4046c.5413,0,.8119-.2165.8119-.6482,0-.433-.2706-.6495-.8119-.6495h-1.4046v1.2977Zm0,3.4073h1.6079c.2799,0,.4884-.0568.6284-.169.1399-.1135.2099-.2772.2099-.4937,0-.2073-.07-.3657-.2099-.4739s-.3485-.1624-.6284-.1624h-1.6079v1.299Z"/>
      <path class="cls-2" d="m20.7158,52.6076v5.0825c0,1.3333-.3578,2.33-1.0746,2.9875s-1.7954.9861-3.2383.9861c-1.4416,0-2.5201-.3287-3.237-.9861s-1.0746-1.6541-1.0746-2.9875v-5.0825h3.163v5.3254c0,.4515.099.7908.297,1.0205s.4818.3446.8515.3446c.3789,0,.668-.1149.866-.3446s.297-.569.297-1.0205v-5.3254h3.1498Z"/>
      <path class="cls-2" d="m25.1778,52.6076v8.9214h-3.1498v-8.9214h3.1498Z"/>
      <path class="cls-2" d="m29.8141,59.2175h4.0422v2.3115h-7.1921v-8.9214h3.1498v6.6099Z"/>
      <path class="cls-2" d="m39.3586,52.6076c1.3967,0,2.4515.3868,3.163,1.1617.7116.7749,1.068,1.8746,1.068,3.299,0,1.4152-.3564,2.5122-1.068,3.2911-.7116.7802-1.7663,1.1696-3.163,1.1696h-4.3802v-8.9214h4.3802Zm-.4462,6.6772c.5861,0,.9756-.1782,1.1696-.5333.1927-.3564.2904-.9175.2904-1.6832s-.0977-1.3267-.2904-1.6832c-.1941-.3564-.5835-.5347-1.1696-.5347h-.7842v4.4343h.7842Z"/>
      <path class="cls-2" d="m47.9421,52.6076v8.9214h-3.1498v-8.9214h3.1498Z"/>
      <path class="cls-2" d="m58.1612,52.6076v8.9214h-3.4059l-2.136-4.0554-.4871-1.0944h-.0264l.0528,1.8376v3.3122h-2.73v-8.9214h3.4059l2.136,4.0686.4871,1.0812h.0277l-.0541-1.8389v-3.3109h2.73Z"/>
      <path class="cls-2" d="m63.4074,61.6637c-.767,0-1.4561-.169-2.0686-.5069s-1.0944-.8462-1.4469-1.5274c-.3512-.6799-.5267-1.5248-.5267-2.5347,0-.9729.1822-1.8046.5479-2.4937.3644-.6891.8937-1.2172,1.5881-1.5815.6931-.3657,1.5221-.5479,2.4871-.5479,1.0997,0,1.9802.1941,2.6429.5822.6627.3868,1.1696,1.0086,1.5208,1.8653l-2.9333,1.0535c-.0634-.4224-.2007-.7182-.4119-.8845-.2125-.1677-.4766-.2508-.7908-.2508-.3432,0-.6205.0818-.8317.2442-.2125.1611-.3657.4066-.4594.7366-.095.3287-.1426.7459-.1426,1.2502,0,.5584.0607,1.0086.1822,1.3518.1215.3419.3063.5875.5545.7366s.5611.2231.9399.2231c.1795,0,.3446-.0185.4937-.0541.1479-.0356.2785-.0924.3921-.169.1122-.0766.198-.1729.2561-.2904s.0884-.2574.0884-.4198v-.0132h-1.501v-1.9327h4.136v5.0284h-2.0805l-.2574-2.3921.4871.5267c-.1545.6403-.4713,1.1327-.9531,1.4799-.4832.3472-1.1208.5201-1.9129.5201Z"/>
      <path class="cls-2" d="m6.3739,72.4782c-.767,0-1.4561-.169-2.0686-.5069s-1.0944-.8462-1.4469-1.5274c-.3512-.6799-.5267-1.5248-.5267-2.5347,0-.9729.1822-1.8046.5479-2.4937.3644-.6891.8937-1.2172,1.5881-1.5815.6931-.3657,1.5221-.5479,2.4871-.5479,1.0997,0,1.9802.1941,2.6429.5822.6627.3868,1.1696,1.0086,1.5208,1.8653l-2.9333,1.0535c-.0634-.4224-.2007-.7182-.4119-.8845-.2125-.1677-.4766-.2508-.7908-.2508-.3432,0-.6205.0818-.8317.2442-.2125.1611-.3657.4066-.4594.7366-.095.3287-.1426.7459-.1426,1.2502,0,.5584.0607,1.0086.1822,1.3518.1215.3419.3063.5875.5545.7366s.5611.2231.9399.2231c.1795,0,.3446-.0185.4937-.0541.1479-.0356.2785-.0924.3921-.169.1122-.0766.198-.1729.2561-.2904s.0884-.2574.0884-.4198v-.0132h-1.501v-1.9327h4.136v5.0284h-2.0805l-.2574-2.3921.4871.5267c-.1545.6403-.4713,1.1327-.9531,1.4799-.4832.3472-1.1208.5201-1.9129.5201Z"/>
      <path class="cls-2" d="m17.3494,63.4221c1.163,0,2.0541.2587,2.6759.7762.6218.5188.9333,1.2066.9333,2.062,0,.9822-.3036,1.7214-.9122,2.2165-.6086.4964-1.4944.7446-2.6561.7446l-.3116.1611h-1.4865v2.9611h-3.0825v-8.9214h4.8396Zm-.5413,3.8931c.334,0,.5835-.0607.7512-.1835.1663-.1215.2495-.3353.2495-.6416,0-.297-.0832-.5096-.2495-.635-.1677-.1267-.4172-.1901-.7512-.1901h-1.2158v1.6502h1.2158Zm1.8653.6614l2.7855,4.367h-3.4205l-2.0818-3.9063,2.7168-.4607Z"/>
      <path class="cls-2" d="m26.3395,63.2861c.9452,0,1.7571.1809,2.433.5413s1.1934.8832,1.5538,1.5683c.3604.6851.5413,1.5142.5413,2.4871s-.1809,1.802-.5413,2.4871-.8779,1.2079-1.5538,1.5683c-.6759.3604-1.4878.5399-2.433.5399-.9373,0-1.7465-.1795-2.4264-.5399-.6812-.3604-1.204-.8832-1.5683-1.5683-.3657-.6851-.5479-1.5142-.5479-2.4871s.1822-1.802.5479-2.4871c.3644-.6851.8871-1.2079,1.5683-1.5683.6799-.3604,1.4891-.5413,2.4264-.5413Zm0,2.3657c-.3076,0-.5571.0792-.7512.2363-.1941.1584-.338.3987-.4317.7234-.095.3248-.1426.7485-.1426,1.2713,0,.5135.0475.9347.1426,1.2634.0937.33.2376.5729.4317.73.1941.1584.4436.2363.7512.2363.3063,0,.5558-.0779.7498-.2363.1941-.1571.3353-.4.4251-.73.0911-.3287.136-.7498.136-1.2634,0-.5228-.0449-.9465-.136-1.2713-.0898-.3248-.231-.565-.4251-.7234-.1941-.1571-.4436-.2363-.7498-.2363Z"/>
      <path class="cls-2" d="m40.519,63.4221v5.0825c0,1.3333-.3578,2.33-1.0746,2.9875-.7168.6574-1.7954.9861-3.2383.9861-1.4416,0-2.5201-.3287-3.237-.9861-.7168-.6574-1.0746-1.6541-1.0746-2.9875v-5.0825h3.163v5.3254c0,.4515.099.7908.297,1.0205s.4818.3446.8515.3446c.3789,0,.668-.1149.866-.3446s.297-.569.297-1.0205v-5.3254h3.1498Z"/>
      <path class="cls-2" d="m46.5626,63.4221c.8026,0,1.4825.1215,2.0409.3644s.9822.5993,1.2713,1.068c.2878.4686.4317,1.0416.4317,1.7175s-.1439,1.2475-.4317,1.7162c-.2891.4686-.7129.8251-1.2713,1.068s-1.2383.3644-2.0409.3644h-1.5815v2.6231h-3.1498v-8.9214h4.7313Zm-.5135,4.0686c.3419,0,.6125-.0739.8106-.2231s.2983-.3802.2983-.6957-.1003-.5479-.2983-.697c-.198-.1479-.4686-.2231-.8106-.2231h-1.068v1.8389h1.068Z"/>
    </g>
  </g>
</svg>